<svg width="512" height="512" viewBox="0 0 512 512" fill="none" xmlns="http://www.w3.org/2000/svg">
    <rect width="512" height="512" rx="80" fill="url(#paint0_linear)"/>

    <rect x="225" y="325" width="62" height="42" rx="10" fill="white" style="filter: drop-shadow(0px 0px 8px #ff0055);"/>
    <path d="M250 338V354L262 346L250 338Z" fill="#800080"/>

    <path d="M256 100C256 100 210 120 210 180H235V250L215 250L256 300L297 250L277 250V180C277 180 277 100 256 100Z" fill="white"/>

    <path d="M185 250C185 310 210 340 210 340" stroke="white" stroke-width="8" stroke-linecap="round"/>
    <path d="M327 250C327 310 302 340 302 340" stroke="white" stroke-width="8" stroke-linecap="round"/>
    <path d="M302 340L312 330M302 340L292 330" stroke="white" stroke-width="8" stroke-linecap="round"/>

    <defs>
        <linearGradient id="paint0_linear" x1="0" y1="0" x2="512" y2="512" gradientUnits="userSpaceOnUse">
            <stop stop-color="#2E5098"/>
            <stop offset="1" stop-color="#602080"/>
        </linearGradient>
    </defs>
</svg>